<svg width="50" height="37" viewBox="0 0 50 37" fill="none" xmlns="http://www.w3.org/2000/svg">
<path fill-rule="evenodd" clip-rule="evenodd" d="M16.0714 0C14.3036 0 12.9179 1.01245 12.0607 2.22673C11.1929 3.45109 10.7143 5.04882 10.7143 6.72727C10.7143 8.40909 11.1929 10.0035 12.0607 11.2278C12.9179 12.4387 14.3036 13.4545 16.0714 13.4545C17.8393 13.4545 19.225 12.4421 20.0821 11.2278C20.95 10.0035 21.4286 8.40573 21.4286 6.72727C21.4286 5.04545 20.95 3.45109 20.0821 2.22673C19.225 1.01582 17.8393 0 16.0714 0ZM33.9286 0C32.1607 0 30.775 1.01245 29.9179 2.22673C29.05 3.45109 28.5714 5.04882 28.5714 6.72727C28.5714 8.40909 29.05 10.0035 29.9179 11.2278C30.775 12.4387 32.1607 13.4545 33.9286 13.4545C35.6964 13.4545 37.0821 12.4421 37.9393 11.2278C38.8071 10.0035 39.2857 8.40573 39.2857 6.72727C39.2857 5.04545 38.8071 3.45109 37.9393 2.22673C37.0821 1.01582 35.6964 0 33.9286 0ZM5.35714 15.1364C3.58929 15.1364 2.20357 16.1488 1.34643 17.3631C0.478571 18.5875 0 20.1852 0 21.8636C0 23.5455 0.478571 25.1398 1.34643 26.3642C2.20357 27.5751 3.58929 28.5909 5.35714 28.5909C7.125 28.5909 8.51071 27.5785 9.36786 26.3642C10.2357 25.1398 10.7143 23.5421 10.7143 21.8636C10.7143 20.1818 10.2357 18.5875 9.36786 17.3631C8.51071 16.1522 7.125 15.1364 5.35714 15.1364ZM25 15.1364C20.7143 15.1364 17.5393 17.3025 15.5107 19.9901C13.5071 22.6373 12.5 25.9235 12.5 28.5909C12.5 31.6989 14.4821 33.8584 16.9143 35.1567C19.3071 36.4349 22.3071 37 25 37C27.6893 37 30.6929 36.4383 33.0857 35.1567C35.5143 33.8584 37.5 31.6989 37.5 28.5909C37.5 25.9235 36.4929 22.6373 34.4893 19.9901C32.4643 17.2992 29.2893 15.1364 25 15.1364ZM44.6429 15.1364C42.875 15.1364 41.4893 16.1488 40.6321 17.3631C39.7643 18.5875 39.2857 20.1852 39.2857 21.8636C39.2857 23.5455 39.7643 25.1398 40.6321 26.3642C41.4893 27.5751 42.875 28.5909 44.6429 28.5909C46.4107 28.5909 47.7964 27.5785 48.6536 26.3642C49.5214 25.1398 50 23.5421 50 21.8636C50 20.1818 49.5214 18.5875 48.6536 17.3631C47.7964 16.1522 46.4107 15.1364 44.6429 15.1364Z" fill="#222222"/>
</svg>
